# xmcd
#
# Track frame offsets:
#	150
#	12025
#	24800
#	38537
#	50625
#	62612
#	75150
#	86187
#	98587
#	112800
#	124687
#	136587
#	147512
#	159587
#
# Disc length: 2291 seconds
#
# Revision: 0
# Processed by: cddbd v1.5.1PL2 Copyright (c) Steve Scherf et al.
# Submitted via: dBpowerAMP V4.0
#
DISCID=9b08f10e
DTITLE=Gene Autry - Gene Autry Collection [CDTwo)
DYEAR=2000
DGENRE=Country
TTITLE0=Back In The Saddle Again
TTITLE1=South Of The Border (Down Mexico Way)
TTITLE2=The Singing Hills
TTITLE3=El Rancho Grande
TTITLE4=Blueberry Hill
TTITLE5=Be Honest With Me
TTITLE6=You Are My Sunshine
TTITLE7=It Makes No Difference Now
TTITLE8=I Don't Belong In Your World
TTITLE9=Sweethearts Or Strangers
TTITLE10=Dixie Cannonball
TTITLE11=I'm Thinking Tonight Of My Blue Eyes
TTITLE12=Jingle, Jangle, Jingle
TTITLE13=At Mail Call Today
EXTD=Artist: Gene Autry\nAlbum: Gene Autry Collection [CDTwo]\nGenre: Country\nComment: 42 All-Time Classics!\nYear: 2000\n\n 1  Back In The Saddle Again   [2.38   ]\n 2  South Of The Border (Down Mexico Way)   [2.50   ]\n 3  The Singing Hills   [3.0
EXTD=3   ]\n 4  El Rancho Grande   [2.41   ]\n 5  Blueberry Hill   [2.39   ]\n 6  Be Honest With Me   [2.47   ]\n 7  You Are My Sunshine   [2.27   ]\n 8  It Makes No Difference Now   [2.45   ]\n 9  I Don't Belong In Your World   [3.09   ]\n10  Sweethear
EXTD=ts Or Strangers   [2.38   ]\n11  Dixie Cannonball   [2.38   ]\n12  I'm Thinking Tonight Of My Blue Eyes   [2.25   ]\n13  Jingle, Jangle, Jingle   [2.41   ]\n14  At Mail Call Today   [2.43   ]\n\n\n
EXTT0=
EXTT1=
EXTT2=
EXTT3=
EXTT4=
EXTT5=
EXTT6=
EXTT7=
EXTT8=
EXTT9=
EXTT10=
EXTT11=
EXTT12=
EXTT13=
PLAYORDER=
